<svg 
  xmlns="http://www.w3.org/2000/svg" 
  xmlns:xlink="http://www.w3.org/1999/xlink" 
  width="800" 
  height="100" 
  viewBox="0 0 800 100"
>
    <title>DomainDNA Visualization Example (/R2C&amp;N7D6P9R4L6U2P+>)</title>
<defs><clipPath id="cut-third" clipPathUnits="objectBoundingBox"><rect x="0.17" y="-0.2" height="1.4" width="1.2"></rect></clipPath></defs><line x1="20" y1="50" y2="50" x2="61.888543999999996" stroke="#004a6c" stroke-width="16"></line><line x1="78.7160976" y1="50" y2="50" x2="160.60464159999998" stroke="#004a6c" stroke-width="16"></line><line x1="114.7160977243781" y1="37.055728" x2="114.7160977243781" y2="62.944272" stroke="#ffffff" stroke-width="4" transform="rotate(30,114.7160977243781,50)"></line><line x1="124.60464147562189" y1="37.055728" x2="124.60464147562189" y2="62.944272" stroke="#ffffff" stroke-width="4" transform="rotate(30,124.60464147562189,50)"></line><line x1="160.60464159999998" y1="50" y2="50" x2="234.49318559999998" stroke="#6E93A4" stroke-width="16"></line><line x1="197.5489136" y1="37.055728" x2="197.5489136" y2="62.944272" stroke="#ffffff" stroke-width="4" transform="rotate(30,197.5489136,50)"></line><line x1="234.49318559999998" y1="50" y2="50" x2="332.38172959999997" stroke="#dddddd" stroke-width="5.333333333333333"></line><line x1="268.6046419731343" y1="42" x2="268.6046419731343" y2="58" stroke="#777777" stroke-width="3.2" transform="rotate(30,268.6046419731343,50)"></line><line x1="278.49318572437807" y1="42" x2="278.49318572437807" y2="58" stroke="#777777" stroke-width="3.2" transform="rotate(30,278.49318572437807,50)"></line><line x1="288.38172947562185" y1="42" x2="288.38172947562185" y2="58" stroke="#777777" stroke-width="3.2" transform="rotate(30,288.38172947562185,50)"></line><line x1="298.27027322686564" y1="42" x2="298.27027322686564" y2="58" stroke="#777777" stroke-width="3.2" transform="rotate(30,298.27027322686564,50)"></line><line x1="332.38172959999997" y1="50" y2="50" x2="390.2702736" stroke="#004a6c" stroke-width="16"></line><line x1="390.2702736" y1="50" y2="50" x2="464.1588176" stroke="#6E93A4" stroke-width="16"></line><line x1="427.2145456" y1="37.055728" x2="427.2145456" y2="62.944272" stroke="#ffffff" stroke-width="4" transform="rotate(30,427.2145456,50)"></line><line x1="464.1588176" y1="50" y2="50" x2="506.04736160000004" stroke="#004a6c" stroke-width="16"></line><line x1="506.04736160000004" y1="50" y2="50" x2="611.9359056000001" stroke="#dddddd" stroke-width="5.333333333333333"></line><line x1="539.2145460975124" y1="42" x2="539.2145460975124" y2="58" stroke="#777777" stroke-width="3.2" transform="rotate(30,539.2145460975124,50)"></line><line x1="549.1030898487562" y1="42" x2="549.1030898487562" y2="58" stroke="#777777" stroke-width="3.2" transform="rotate(30,549.1030898487562,50)"></line><line x1="558.9916336" y1="42" x2="558.9916336" y2="58" stroke="#777777" stroke-width="3.2" transform="rotate(30,558.9916336,50)"></line><line x1="568.8801773512438" y1="42" x2="568.8801773512438" y2="58" stroke="#777777" stroke-width="3.2" transform="rotate(30,568.8801773512438,50)"></line><line x1="578.7687211024876" y1="42" x2="578.7687211024876" y2="58" stroke="#777777" stroke-width="3.2" transform="rotate(30,578.7687211024876,50)"></line><circle cx="20" cy="50" r="12.944272" stroke-width="2" stroke="black" fill="white"></circle><text x="20" y="56" text-anchor="middle" class="labeltext">R</text><circle cx="61.888543999999996" cy="50" r="12.944272" stroke-width="2" stroke="black" fill="white"></circle><text x="61.888543999999996" y="56" text-anchor="middle" class="labeltext">C</text><circle cx="78.7160976" cy="50" r="12.944272" stroke-width="2" stroke="black" fill="white" clip-path="url(#cut-third)"></circle><text x="78.7160976" y="56" text-anchor="middle" class="labeltext">N</text><circle cx="160.60464159999998" cy="50" r="12.944272" stroke-width="2" stroke="black" fill="white"></circle><text x="160.60464159999998" y="56" text-anchor="middle" class="labeltext">D</text><circle cx="234.49318559999998" cy="50" r="12.944272" stroke-width="2" stroke="black" fill="white"></circle><text x="234.49318559999998" y="56" text-anchor="middle" class="labeltext">P</text><circle cx="332.38172959999997" cy="50" r="12.944272" stroke-width="2" stroke="black" fill="white"></circle><text x="332.38172959999997" y="56" text-anchor="middle" class="labeltext">R</text><circle cx="390.2702736" cy="50" r="12.944272" stroke-width="2" stroke="black" fill="white"></circle><text x="390.2702736" y="56" text-anchor="middle" class="labeltext">L</text><circle cx="464.1588176" cy="50" r="12.944272" stroke-width="2" stroke="black" fill="white"></circle><text x="464.1588176" y="56" text-anchor="middle" class="labeltext">U</text><circle cx="506.04736160000004" cy="50" r="12.944272" stroke-width="2" stroke="black" fill="white"></circle><text x="506.04736160000004" y="56" text-anchor="middle" class="labeltext">P</text><polygon points="611.7359056,42 611.7359056,58 619.9359056000001,50" fill="#dddddd" stroke="0"></polygon></svg>